<?xml version="1.0" encoding="utf-8"?>
<!-- Generator: Adobe Illustrator 27.9.0, SVG Export Plug-In . SVG Version: 6.00 Build 0)  -->
<svg version="1.1" id="Lager_1" xmlns="http://www.w3.org/2000/svg" xmlns:xlink="http://www.w3.org/1999/xlink" x="0px" y="0px"
	 viewBox="0 0 255.1 255.1" style="enable-background:new 0 0 255.1 255.1;" xml:space="preserve">
<style type="text/css">
	.st0{fill:#236BDC;}
	.st1{fill:#FFFFFF;}
</style>
<circle class="st0" cx="127.6" cy="127.6" r="127.6"/>
<path class="st1" d="M193.7,56.1C154.2,19.9,92.6,22.4,56.4,61.6c-36.3,39.3-33.8,100.9,5.5,137.3L62,199
	c19.3,17,41.5,25.6,66.1,25.6c7.6,0,15.4-0.9,23.6-2.6l2.1-0.4c1.5-0.3,2.5-1.8,2.2-3.3l-0.9-4.2c-0.4-1.5-1.9-2.5-3.4-2.2l-2.1,0.4
	c-30.9,6.3-58.1-0.7-80.9-20.8c-35.2-32.6-37.4-87.8-4.9-123.1c32.4-35.2,87.7-37.4,123.3-4.9c32.1,29.5,31.5,71.8,21.2,99
	c-6.9,18.2-18.7,31.1-28.7,31.4c-8-0.2-23.4-5.8-38-41.2c-0.6-1.5-1.2-3-1.8-4.5c0.3-0.9,0.5-1.7,0.6-2.4c0.2-0.9,0.5-2.5,1-4.5
	c7.6-33.3,14.7-73.4,3-88.1c-3.1-3.8-7.2-5.8-12.1-5.8c-7.1,0-15.7,5.5-15.9,31.7c-0.1,9.5,0.9,20.4,2.9,31.5
	c2.1,11.5,7.4,30.8,9.9,37.7c-1.8,4.5-5.1,10.7-9,16.4c-6.6,9.6-11.9,13-14.4,13c-1.9,0-3.3-0.6-4.4-1.8c-2.2-2.3-6.2-9.1-4-30.3
	c1.1-9.5,5.9-17.6,11.2-20.5c1.6-0.9,3.3-1.3,5.1-1.3c1.7,0,3.6,0.4,5.6,1.2c-0.4-1.9-2-9.4-2.3-11c-5.6-0.8-10.1,0.6-13.1,2.3
	c-8.4,4.5-15,15.3-16.4,28.2c-2,19.7,0.6,31.5,6.5,38.1c3,3.3,7.1,5.1,11.8,5.1c8.7,0,17.1-9.4,22.6-17.3c2.1-3.1,4.1-6.3,5.8-9.5
	c15.6,35,33.1,42.8,45.3,43h0.1h0.1c14.4-0.3,29.3-15.2,37.9-37.9C228.9,135.8,229.5,89,193.7,56.1z M133.6,129.4
	c-4.7-17.2-7.4-35.4-7.3-50.2c0.2-15.9,3.7-21.8,5.9-21.8c1.8,0,3.1,0.6,4.2,2C144,68.9,139.6,100.9,133.6,129.4z"/>
</svg>
